<svg xmlns="http://www.w3.org/2000/svg" viewBox="0 0 8.908 8.272">
  <path fill="#b4bdb8" d="M8.57 2.863H5.65L4.756.211a.322.322 0 0 0-.6 0l-.893 2.652H.318A.319.319 0 0 0 0 3.181a.234.234 0 0 0 .006.054.306.306 0 0 0 .133.225l2.4 1.694-.923 2.682a.319.319 0 0 0 .109.358.308.308 0 0 0 .179.078.39.39 0 0 0 .2-.072L4.45 6.525l2.346 1.672a.373.373 0 0 0 .2.072.286.286 0 0 0 .177-.078.315.315 0 0 0 .109-.358l-.919-2.679 2.387-1.71.058-.05a.3.3 0 0 0-.235-.531Z" data-name="Icon ionic-ios-star"/>
</svg>
